<svg width="24" height="24" viewBox="0 0 24 24" fill="none" xmlns="http://www.w3.org/2000/svg">
<rect x="4" y="1" width="16" height="21.5" rx="3" fill="#202224"/>
<path fill-rule="evenodd" clip-rule="evenodd" d="M7.25 6.25C7.25 5.83579 7.64875 5.5 8.14062 5.5H15.8594C16.3513 5.5 16.75 5.83579 16.75 6.25C16.75 6.66421 16.3513 7 15.8594 7H8.14062C7.64875 7 7.25 6.66421 7.25 6.25Z" fill="white"/>
<circle cx="8.75" cy="13.75" r="0.75" fill="white"/>
<circle cx="8.75" cy="10.75" r="0.75" fill="white"/>
<circle cx="8.75" cy="16.75" r="0.75" fill="white"/>
<circle cx="12" cy="13.75" r="0.75" fill="white"/>
<circle cx="12" cy="10.75" r="0.75" fill="white"/>
<circle cx="12" cy="16.75" r="0.75" fill="white"/>
<circle cx="15.25" cy="13.75" r="0.75" fill="white"/>
<circle cx="15.25" cy="10.75" r="0.75" fill="white"/>
<circle cx="15.25" cy="16.75" r="0.75" fill="white"/>
</svg>
