<svg width="24" height="24" viewBox="0 0 24 24" fill="none" xmlns="http://www.w3.org/2000/svg">
<path fill-rule="evenodd" clip-rule="evenodd" d="M5.46972 5.46967C5.76262 5.17678 6.23749 5.17678 6.53038 5.46967L19.3046 18.2439C19.5975 18.5368 19.5975 19.0116 19.3046 19.3045C19.0117 19.5974 18.5368 19.5974 18.2439 19.3045L5.46972 6.53033C5.17683 6.23744 5.17683 5.76256 5.46972 5.46967Z" fill="#3C424D"/>
<path fill-rule="evenodd" clip-rule="evenodd" d="M5.46967 19.3046C5.17678 19.0117 5.17678 18.5369 5.46967 18.244L18.2439 5.46978C18.5368 5.17688 19.0116 5.17688 19.3045 5.46978C19.5974 5.76267 19.5974 6.23754 19.3045 6.53044L6.53033 19.3046C6.23744 19.5975 5.76256 19.5975 5.46967 19.3046Z" fill="#3C424D"/>
</svg>
