<svg width="24" height="24" viewBox="0 0 24 24" fill="none" xmlns="http://www.w3.org/2000/svg">
<path fill-rule="evenodd" clip-rule="evenodd" d="M13.4499 4.88017H16.5199C20.2099 4.88017 22.0099 6.85017 21.9999 10.8902V15.7602C21.9999 19.6202 19.6199 22.0002 15.7499 22.0002H8.23994C4.38994 22.0002 1.99994 19.6202 1.99994 15.7502V8.24017C1.99994 4.10017 3.83994 2.00017 7.46994 2.00017H9.04994C9.98094 1.99017 10.8499 2.42017 11.4199 3.15017L12.2999 4.32017C12.5799 4.67017 12.9999 4.88017 13.4499 4.88017ZM7.36997 15.2902H16.63C17.04 15.2902 17.37 14.9502 17.37 14.5402C17.37 14.1202 17.04 13.7902 16.63 13.7902H7.36997C6.94997 13.7902 6.61997 14.1202 6.61997 14.5402C6.61997 14.9502 6.94997 15.2902 7.36997 15.2902Z" fill="#130F26"/>
</svg>
