<svg width="24" height="24" viewBox="0 0 24 24" fill="none" xmlns="http://www.w3.org/2000/svg">
<path fill-rule="evenodd" clip-rule="evenodd" d="M10.9887 2.90312C11.2648 2.65207 11.6246 2.51295 11.9978 2.51294C12.371 2.51293 12.7307 2.65202 13.0069 2.90305L20.5074 9.72196C20.662 9.86255 20.7856 10.0339 20.8701 10.225C20.9547 10.4162 20.9984 10.6229 20.9984 10.8319V20.2501C20.9984 20.6643 20.6626 21.0001 20.2484 21.0001C19.8341 21.0001 19.4984 20.6643 19.4984 20.2501V10.8319L11.9978 4.01294L4.49835 10.8318L4.49835 20.2501C4.49835 20.6643 4.16257 21.0001 3.74835 21.0001C3.33414 21.0001 2.99835 20.6643 2.99835 20.2501V10.8318C2.99835 10.6228 3.04202 10.4162 3.12655 10.2251C3.21109 10.0339 3.33463 9.86259 3.48925 9.722L3.9938 10.2769L3.48925 9.722L10.9887 2.90312Z" fill="#3C424D"/>
<path fill-rule="evenodd" clip-rule="evenodd" d="M0.748352 20.25C0.748352 19.8358 1.08414 19.5 1.49835 19.5H22.4984C22.9126 19.5 23.2484 19.8358 23.2484 20.25C23.2484 20.6642 22.9126 21 22.4984 21H1.49835C1.08414 21 0.748352 20.6642 0.748352 20.25Z" fill="#3C424D"/>
<path fill-rule="evenodd" clip-rule="evenodd" d="M9.43714 13.9386C9.71845 13.6573 10.1 13.4993 10.4978 13.4993H13.4978C13.8956 13.4993 14.2772 13.6573 14.5585 13.9386C14.8398 14.2199 14.9978 14.6014 14.9978 14.9993V20.2493C14.9978 20.6635 14.662 20.9993 14.2478 20.9993C13.8336 20.9993 13.4978 20.6635 13.4978 20.2493V14.9993H10.4978V20.2493C10.4978 20.6635 10.162 20.9993 9.7478 20.9993C9.33359 20.9993 8.9978 20.6635 8.9978 20.2493V14.9993C8.9978 14.6014 9.15584 14.2199 9.43714 13.9386Z" fill="#3C424D"/>
</svg>
