<svg width="24" height="24" viewBox="0 0 24 24" fill="none" xmlns="http://www.w3.org/2000/svg">
<path d="M22.4973 19.5H20.9973V10.8318C20.9971 10.6228 20.9533 10.4162 20.8688 10.2251C20.7842 10.034 20.6608 9.86259 20.5064 9.72186L13.0057 2.90294C12.7302 2.65065 12.3702 2.51072 11.9966 2.51074C11.6231 2.51076 11.2631 2.65072 10.9876 2.90303L3.48816 9.72186C3.33369 9.86258 3.21025 10.034 3.12572 10.2251C3.0412 10.4162 2.99744 10.6228 2.99725 10.8317V19.5H1.49725C1.29834 19.5 1.10758 19.579 0.966923 19.7197C0.826271 19.8603 0.747253 20.0511 0.747253 20.25C0.747253 20.4489 0.826271 20.6397 0.966923 20.7803C1.10758 20.921 1.29834 21 1.49725 21H22.4973C22.6962 21 22.8869 20.921 23.0276 20.7803C23.1682 20.6397 23.2473 20.4489 23.2473 20.25C23.2473 20.0511 23.1682 19.8603 23.0276 19.7197C22.8869 19.579 22.6962 19.5 22.4973 19.5H22.4973ZM14.2467 19.4992H13.4967V19.5H10.4967V19.4992H9.74671V14.9992C9.74671 14.8003 9.82573 14.6095 9.96638 14.4689C10.107 14.3282 10.2978 14.2492 10.4967 14.2492H13.4967C13.6956 14.2492 13.8864 14.3282 14.027 14.4689C14.1677 14.6095 14.2467 14.8003 14.2467 14.9992V19.4992Z" fill="#3C424D"/>
</svg>
