<svg width="24" height="24" viewBox="0 0 24 24" fill="none" xmlns="http://www.w3.org/2000/svg">
<path d="M14.6511 8.28697L8.28714 14.6509C8.14665 14.7916 8.06777 14.9823 8.06784 15.1811C8.06791 15.38 8.14693 15.5706 8.28752 15.7112C8.42812 15.8518 8.61878 15.9308 8.81762 15.9309C9.01645 15.931 9.20717 15.8521 9.34787 15.7116L15.7118 9.3477C15.7815 9.27807 15.8368 9.19538 15.8746 9.10436C15.9124 9.01333 15.9318 8.91576 15.9319 8.81722C15.9319 8.71867 15.9125 8.62109 15.8748 8.53004C15.8371 8.43899 15.7819 8.35626 15.7122 8.28658C15.6425 8.2169 15.5598 8.16163 15.4687 8.12394C15.3777 8.08624 15.2801 8.06686 15.1815 8.06689C15.083 8.06693 14.9854 8.08639 14.8944 8.12415C14.8034 8.16191 14.7207 8.21724 14.6511 8.28697V8.28697Z" fill="#3C424D"/>
<path d="M13.0599 16.2427L10.4082 18.8943C9.70499 19.5976 8.75119 19.9927 7.75664 19.9927C6.7621 19.9927 5.80829 19.5976 5.10505 18.8943C4.4018 18.1911 4.00672 17.2373 4.00672 16.2427C4.00672 15.2482 4.4018 14.2944 5.10505 13.5911L7.75669 10.9395C7.82642 10.8699 7.88175 10.7872 7.91951 10.6962C7.95727 10.6051 7.97673 10.5076 7.97676 10.409C7.9768 10.3105 7.95742 10.2129 7.91972 10.1218C7.88203 10.0308 7.82676 9.94806 7.75708 9.87838C7.6874 9.80869 7.60467 9.75343 7.51362 9.71573C7.42257 9.67804 7.32498 9.65866 7.22644 9.65869C7.12789 9.65873 7.03032 9.67818 6.9393 9.71594C6.84828 9.7537 6.76559 9.80903 6.69596 9.87876L4.04432 12.5304C3.05975 13.515 2.50662 14.8503 2.50662 16.2427C2.50662 17.6351 3.05975 18.9705 4.04432 19.9551C5.02889 20.9396 6.36425 21.4928 7.75664 21.4928C9.14904 21.4928 10.4844 20.9396 11.469 19.9551L14.1206 17.3034C14.2613 17.1628 14.3403 16.972 14.3403 16.7731C14.3403 16.5741 14.2613 16.3833 14.1206 16.2427C13.9799 16.102 13.7892 16.023 13.5902 16.023C13.3913 16.023 13.2005 16.102 13.0599 16.2427Z" fill="#3C424D"/>
<path d="M19.9547 4.04446C18.9701 3.05993 17.6348 2.50684 16.2424 2.50684C14.85 2.50684 13.5147 3.05993 12.5301 4.04446L9.87845 6.6961C9.73795 6.8368 9.65908 7.02753 9.65915 7.22636C9.65922 7.42519 9.73824 7.61585 9.87883 7.75645C10.0194 7.89704 10.2101 7.97606 10.4089 7.97613C10.6078 7.9762 10.7985 7.89733 10.9392 7.75683L13.5908 5.10519C14.2941 4.40231 15.2478 4.00755 16.2422 4.00771C17.2365 4.00786 18.1901 4.40293 18.8932 5.10603C19.5963 5.80913 19.9913 6.7627 19.9915 7.75704C19.9917 8.75137 19.5969 9.70506 18.894 10.4084L16.2424 13.06C16.1019 13.2007 16.023 13.3914 16.0231 13.5903C16.0231 13.7891 16.1022 13.9798 16.2428 14.1204C16.3833 14.261 16.574 14.34 16.7728 14.3401C16.9717 14.3401 17.1624 14.2612 17.3031 14.1208L19.9547 11.4691C20.9378 10.4838 21.4899 9.14869 21.4899 7.75679C21.4899 6.36489 20.9378 5.02982 19.9547 4.04446Z" fill="#3C424D"/>
</svg>
