<svg width="24" height="24" viewBox="0 0 24 24" fill="none" xmlns="http://www.w3.org/2000/svg">
<path fill-rule="evenodd" clip-rule="evenodd" d="M17.0126 9.67206C17.34 9.92576 17.3998 10.3969 17.1461 10.7243L14.217 14.5046C14.0947 14.6625 13.9144 14.7651 13.7161 14.7896C13.5178 14.8141 13.318 14.7585 13.1609 14.635L10.3424 12.4211L7.81125 15.7108C7.55866 16.0391 7.08777 16.1005 6.75948 15.8479C6.4312 15.5953 6.36983 15.1244 6.62242 14.7961L9.61555 10.906C9.73765 10.7473 9.91812 10.644 10.1168 10.6191C10.3155 10.5943 10.5158 10.6499 10.6733 10.7735L13.4937 12.9891L15.9604 9.80557C16.2141 9.47814 16.6852 9.41837 17.0126 9.67206Z" fill="#626D81"/>
<path fill-rule="evenodd" clip-rule="evenodd" d="M19.9674 3.5C19.32 3.5 18.7952 4.02481 18.7952 4.6722C18.7952 5.31958 19.32 5.84439 19.9674 5.84439C20.6148 5.84439 21.1396 5.31958 21.1396 4.6722C21.1396 4.02481 20.6148 3.5 19.9674 3.5ZM17.2952 4.6722C17.2952 3.19638 18.4916 2 19.9674 2C21.4432 2 22.6396 3.19638 22.6396 4.6722C22.6396 6.14801 21.4432 7.34439 19.9674 7.34439C18.4916 7.34439 17.2952 6.14801 17.2952 4.6722Z" fill="#626D81"/>
<path fill-rule="evenodd" clip-rule="evenodd" d="M3.51005 4.52495C4.5099 3.44641 5.93683 2.84204 7.62872 2.84204H14.8965C15.3107 2.84204 15.6465 3.17783 15.6465 3.59204C15.6465 4.00625 15.3107 4.34204 14.8965 4.34204H7.62872C6.30916 4.34204 5.29673 4.80403 4.61008 5.54472C3.91748 6.29183 3.5 7.38436 3.5 8.73621V16.8186C3.5 18.1742 3.91052 19.2635 4.5971 20.0063C5.27707 20.7419 6.28784 21.2036 7.62872 21.2036H16.2328C17.5534 21.2036 18.5659 20.7432 19.2521 20.0048C19.9442 19.2602 20.3616 18.1703 20.3616 16.8186V9.77968C20.3616 9.36547 20.6973 9.02968 21.1116 9.02968C21.5258 9.02968 21.8616 9.36547 21.8616 9.77968V16.8186C21.8616 18.4783 21.3453 19.9559 20.3509 21.026C19.3506 22.1022 17.9237 22.7036 16.2328 22.7036H7.62872C5.92154 22.7036 4.49295 22.1035 3.49558 21.0245C2.50481 19.9526 2 18.4744 2 16.8186V8.73621C2 7.07661 2.51616 5.59706 3.51005 4.52495Z" fill="#626D81"/>
</svg>
