<svg width="24" height="24" viewBox="0 0 24 24" fill="none" xmlns="http://www.w3.org/2000/svg">
<path fill-rule="evenodd" clip-rule="evenodd" d="M2 12.0058C2 6.48625 6.48842 2 12 2C17.5116 2 22 6.48625 22 12.0058C22 17.5137 17.5116 22 12 22C6.48842 22 2 17.5137 2 12.0058ZM15.6679 13.0178C15.7741 12.9117 15.9093 12.7477 15.9382 12.7091C16.0927 12.5065 16.1699 12.2557 16.1699 12.0058C16.1699 11.725 16.083 11.4645 15.9189 11.2523C15.9055 11.2388 15.8791 11.2102 15.8448 11.1728C15.7806 11.103 15.6884 11.0026 15.6004 10.9146C14.8089 10.0656 12.7432 8.67631 11.6622 8.25181C11.4981 8.18524 11.083 8.03956 10.861 8.02991C10.6486 8.02991 10.4459 8.07815 10.2529 8.17463C10.0116 8.3097 9.81852 8.52195 9.71235 8.77279C9.64478 8.94645 9.5386 9.46744 9.5386 9.47709C9.43242 10.0463 9.37451 10.9725 9.37451 11.9952C9.37451 12.9706 9.43242 13.8572 9.5193 14.4361C9.52169 14.4385 9.52999 14.4799 9.54289 14.5442C9.5821 14.7397 9.6638 15.1471 9.75096 15.314C9.96331 15.7192 10.3784 15.9701 10.8224 15.9701H10.861C11.1506 15.9604 11.7587 15.7096 11.7587 15.7C12.7818 15.2754 14.7992 13.9537 15.61 13.0757L15.6679 13.0178Z" fill="#3C424D"/>
</svg>
