<svg width="32" height="32" viewBox="0 0 32 32" fill="none" xmlns="http://www.w3.org/2000/svg">
<path d="M29.0391 14.2932L11.043 3.29516C10.7398 3.1098 10.3928 3.00855 10.0376 3.00182C9.68232 2.9951 9.3317 3.08315 9.02178 3.25691C8.71186 3.43066 8.45383 3.68386 8.27425 3.99044C8.09466 4.29701 8 4.64591 8 5.00121V26.9993C8.00029 27.3545 8.09513 27.7032 8.27479 28.0096C8.45445 28.316 8.71244 28.569 9.02226 28.7427C9.33208 28.9164 9.68255 29.0045 10.0377 28.9979C10.3928 28.9914 10.7398 28.8904 11.043 28.7053L29.0391 17.7073C29.3314 17.5285 29.5729 17.2776 29.7405 16.9787C29.9081 16.6798 29.9961 16.3429 29.9961 16.0002C29.9961 15.6576 29.9081 15.3206 29.7405 15.0217C29.5729 14.7228 29.3314 14.472 29.0391 14.2932Z" fill="#3C424D"/>
</svg>
