<svg width="24" height="24" viewBox="0 0 24 24" fill="none" xmlns="http://www.w3.org/2000/svg">
<path fill-rule="evenodd" clip-rule="evenodd" d="M11.9886 2.75C7.43853 2.75 3.75 6.43853 3.75 10.9886C3.75 15.5386 7.43853 19.2271 11.9886 19.2271C16.5386 19.2271 20.2271 15.5386 20.2271 10.9886C20.2271 6.43853 16.5386 2.75 11.9886 2.75ZM2.25 10.9886C2.25 5.6101 6.6101 1.25 11.9886 1.25C17.367 1.25 21.7271 5.6101 21.7271 10.9886C21.7271 16.367 17.367 20.7271 11.9886 20.7271C6.6101 20.7271 2.25 16.367 2.25 10.9886Z" fill="#3C424D"/>
<path fill-rule="evenodd" clip-rule="evenodd" d="M17.7093 17.1774C18.0018 16.8841 18.4767 16.8835 18.7699 17.176L22.294 20.6909C22.5872 20.9834 22.5879 21.4583 22.2953 21.7515C22.0028 22.0448 21.528 22.0454 21.2347 21.7529L17.7107 18.2381C17.4174 17.9455 17.4168 17.4707 17.7093 17.1774Z" fill="#3C424D"/>
</svg>
