<svg width="24" height="24" viewBox="0 0 24 24" fill="none" xmlns="http://www.w3.org/2000/svg">
<path fill-rule="evenodd" clip-rule="evenodd" d="M20.4023 13.58C20.7599 13.77 21.0359 14.07 21.23 14.37C21.6082 14.99 21.5775 15.75 21.2096 16.42L20.4942 17.62C20.1161 18.26 19.411 18.66 18.6854 18.66C18.3277 18.66 17.9291 18.56 17.6021 18.36C17.3364 18.19 17.0298 18.13 16.7028 18.13C15.691 18.13 14.8428 18.96 14.8121 19.95C14.8121 21.1 13.8719 22 12.6967 22H11.3068C10.1214 22 9.18116 21.1 9.18116 19.95C9.16072 18.96 8.3125 18.13 7.30076 18.13C6.96351 18.13 6.65693 18.19 6.40144 18.36C6.07441 18.56 5.66563 18.66 5.31816 18.66C4.58235 18.66 3.8772 18.26 3.49908 17.62L2.79393 16.42C2.4158 15.77 2.39536 14.99 2.77349 14.37C2.937 14.07 3.24359 13.77 3.59106 13.58C3.8772 13.44 4.06116 13.21 4.23489 12.94C4.74587 12.08 4.43928 10.95 3.57062 10.44C2.55888 9.87 2.23185 8.6 2.81437 7.61L3.49908 6.43C4.09181 5.44 5.35904 5.09 6.381 5.67C7.2701 6.15 8.42491 5.83 8.94611 4.98C9.10962 4.7 9.2016 4.4 9.18116 4.1C9.16072 3.71 9.27314 3.34 9.46731 3.04C9.84543 2.42 10.5301 2.02 11.2762 2H12.7171C13.4734 2 14.1581 2.42 14.5362 3.04C14.7202 3.34 14.8428 3.71 14.8121 4.1C14.7917 4.4 14.8837 4.7 15.0472 4.98C15.5684 5.83 16.7232 6.15 17.6225 5.67C18.6343 5.09 19.9117 5.44 20.4942 6.43L21.1789 7.61C21.7717 8.6 21.4447 9.87 20.4227 10.44C19.554 10.95 19.2474 12.08 19.7686 12.94C19.9322 13.21 20.1161 13.44 20.4023 13.58ZM9.10962 12.01C9.10962 13.58 10.4075 14.83 12.012 14.83C13.6165 14.83 14.8837 13.58 14.8837 12.01C14.8837 10.44 13.6165 9.18 12.012 9.18C10.4075 9.18 9.10962 10.44 9.10962 12.01Z" fill="#130F26"/>
</svg>
