<svg width="24" height="24" viewBox="0 0 24 24" fill="none" xmlns="http://www.w3.org/2000/svg">
<path fill-rule="evenodd" clip-rule="evenodd" d="M12.1592 8.95459C12.5734 8.95459 12.9092 9.29038 12.9092 9.70459L12.9092 20.75C12.9092 21.1643 12.5734 21.5 12.1592 21.5C11.745 21.5 11.4092 21.1643 11.4092 20.75L11.4092 9.70459C11.4092 9.29038 11.745 8.95459 12.1592 8.95459Z" fill="#3C424D"/>
<path fill-rule="evenodd" clip-rule="evenodd" d="M12.1592 2C12.5734 2 12.9092 2.33579 12.9092 2.75L12.9092 5.61364C12.9092 6.02785 12.5734 6.36364 12.1592 6.36364C11.745 6.36364 11.4092 6.02785 11.4092 5.61363L11.4092 2.75C11.4092 2.33578 11.745 2 12.1592 2Z" fill="#3C424D"/>
<path d="M12.1591 9.70468C13.2888 9.70468 14.2046 8.7889 14.2046 7.65922C14.2046 6.52955 13.2888 5.61377 12.1591 5.61377C11.0295 5.61377 10.1137 6.52955 10.1137 7.65922C10.1137 8.7889 11.0295 9.70468 12.1591 9.70468Z" fill="#3C424D"/>
<path fill-rule="evenodd" clip-rule="evenodd" d="M12.1591 6.36377C11.4437 6.36377 10.8637 6.94376 10.8637 7.65922C10.8637 8.37468 11.4437 8.95468 12.1591 8.95468C12.8746 8.95468 13.4546 8.37468 13.4546 7.65922C13.4546 6.94376 12.8746 6.36377 12.1591 6.36377ZM9.36369 7.65922C9.36369 6.11534 10.6153 4.86377 12.1591 4.86377C13.703 4.86377 14.9546 6.11534 14.9546 7.65922C14.9546 9.20311 13.703 10.4547 12.1591 10.4547C10.6153 10.4547 9.36369 9.20311 9.36369 7.65922Z" fill="#3C424D"/>
<path fill-rule="evenodd" clip-rule="evenodd" d="M19.5226 17.1362C19.9368 17.1362 20.2726 17.472 20.2726 17.8862L20.2727 20.7498C20.2727 21.1641 19.937 21.4999 19.5227 21.4999C19.1085 21.4999 18.7727 21.1641 18.7727 20.7499L18.7726 17.8863C18.7726 17.472 19.1084 17.1362 19.5226 17.1362Z" fill="#3C424D"/>
<path fill-rule="evenodd" clip-rule="evenodd" d="M19.5227 2C19.9369 2 20.2727 2.33579 20.2727 2.75001L20.2726 13.7955C20.2726 14.2097 19.9368 14.5455 19.5226 14.5455C19.1084 14.5455 18.7726 14.2097 18.7726 13.7954L18.7727 2.74999C18.7727 2.33578 19.1085 2 19.5227 2Z" fill="#3C424D"/>
<path d="M19.5228 17.8863C20.6525 17.8863 21.5683 16.9705 21.5683 15.8409C21.5683 14.7112 20.6525 13.7954 19.5228 13.7954C18.3931 13.7954 17.4774 14.7112 17.4774 15.8409C17.4774 16.9705 18.3931 17.8863 19.5228 17.8863Z" fill="#3C424D"/>
<path fill-rule="evenodd" clip-rule="evenodd" d="M19.5228 14.5454C18.8074 14.5454 18.2274 15.1254 18.2274 15.8409C18.2274 16.5563 18.8074 17.1363 19.5228 17.1363C20.2383 17.1363 20.8183 16.5563 20.8183 15.8409C20.8183 15.1254 20.2383 14.5454 19.5228 14.5454ZM16.7274 15.8409C16.7274 14.297 17.9789 13.0454 19.5228 13.0454C21.0667 13.0454 22.3183 14.297 22.3183 15.8409C22.3183 17.3848 21.0667 18.6363 19.5228 18.6363C17.9789 18.6363 16.7274 17.3848 16.7274 15.8409Z" fill="#3C424D"/>
<path fill-rule="evenodd" clip-rule="evenodd" d="M4.79559 13.8638C5.20981 13.8638 5.54559 14.1996 5.54559 14.6138L5.54552 20.7501C5.54552 21.1644 5.20973 21.5001 4.79552 21.5001C4.3813 21.5001 4.04552 21.1643 4.04552 20.7501L4.04559 14.6138C4.04559 14.1995 4.38138 13.8638 4.79559 13.8638Z" fill="#3C424D"/>
<path fill-rule="evenodd" clip-rule="evenodd" d="M4.79552 2C5.20973 2 5.54552 2.33578 5.54552 2.74999L5.54559 10.5227C5.54559 10.9369 5.2098 11.2727 4.79559 11.2727C4.38138 11.2727 4.04559 10.9369 4.04559 10.5227L4.04552 2.75001C4.04552 2.33579 4.38131 2 4.79552 2Z" fill="#3C424D"/>
<path d="M4.79545 14.6139C5.92513 14.6139 6.84091 13.6981 6.84091 12.5684C6.84091 11.4387 5.92513 10.5229 4.79545 10.5229C3.66578 10.5229 2.75 11.4387 2.75 12.5684C2.75 13.6981 3.66578 14.6139 4.79545 14.6139Z" fill="#3C424D"/>
<path fill-rule="evenodd" clip-rule="evenodd" d="M4.79545 11.2729C4.07999 11.2729 3.5 11.8529 3.5 12.5684C3.5 13.2839 4.07999 13.8639 4.79545 13.8639C5.51091 13.8639 6.09091 13.2839 6.09091 12.5684C6.09091 11.8529 5.51091 11.2729 4.79545 11.2729ZM2 12.5684C2 11.0245 3.25157 9.77295 4.79545 9.77295C6.33934 9.77295 7.59091 11.0245 7.59091 12.5684C7.59091 14.1123 6.33934 15.3639 4.79545 15.3639C3.25157 15.3639 2 14.1123 2 12.5684Z" fill="#3C424D"/>
</svg>
