<svg width="24" height="24" viewBox="0 0 24 24" fill="none" xmlns="http://www.w3.org/2000/svg">
<path d="M14.5791 2.32564C14.453 2.26401 14.3122 2.23902 14.1726 2.25352C14.033 2.26803 13.9003 2.32144 13.7896 2.40768L7.24173 7.49947H2.99954C2.60184 7.49987 2.22054 7.65803 1.93932 7.93925C1.6581 8.22047 1.49994 8.60177 1.49954 8.99947V14.9995C1.49994 15.3972 1.6581 15.7785 1.93932 16.0597C2.22054 16.3409 2.60184 16.4991 2.99954 16.4995H7.24173L13.7896 21.5913C13.9003 21.6775 14.0331 21.7309 14.1727 21.7454C14.3124 21.7599 14.4533 21.7349 14.5794 21.6732C14.7055 21.6115 14.8117 21.5157 14.886 21.3965C14.9603 21.2774 14.9996 21.1399 14.9995 20.9995V2.99947C14.9996 2.85905 14.9603 2.72142 14.8859 2.60229C14.8116 2.48315 14.7053 2.38729 14.5791 2.32564Z" fill="#3C424D"/>
<path d="M17.9995 9C17.8006 9.00001 17.6099 9.07903 17.4692 9.21968C17.3286 9.36033 17.2496 9.55109 17.2495 9.75V14.25C17.2495 14.4489 17.3286 14.6397 17.4692 14.7803C17.6099 14.921 17.8006 15 17.9995 15C18.1985 15 18.3892 14.921 18.5299 14.7803C18.6705 14.6397 18.7495 14.4489 18.7495 14.25V9.75C18.7495 9.55109 18.6705 9.36033 18.5299 9.21968C18.3892 9.07903 18.1985 9.00001 17.9995 9Z" fill="#3C424D"/>
<path d="M20.9995 7.5C20.8006 7.50001 20.6099 7.57903 20.4692 7.71968C20.3286 7.86033 20.2496 8.05109 20.2495 8.25V15.75C20.2495 15.9489 20.3286 16.1397 20.4692 16.2803C20.6099 16.421 20.8006 16.5 20.9995 16.5C21.1985 16.5 21.3892 16.421 21.5299 16.2803C21.6705 16.1397 21.7495 15.9489 21.7495 15.75V8.25C21.7495 8.05109 21.6705 7.86033 21.5299 7.71968C21.3892 7.57903 21.1985 7.50001 20.9995 7.5Z" fill="#3C424D"/>
</svg>
